<?xml version="1.0" encoding="utf-8"?>
<svg version="1.1" viewBox="212.5 80.541 315 429.119" xmlns="http://www.w3.org/2000/svg">
  <g style="" lang="en" role="banner">
    <desc>Open Audio Collective: Audio Network for Everyone</desc>
    <title>Open Audio Collective Logo</title>
    <path fill="#ffffff" d=" M 504.64 172.64 Q 473.94 203.93 442.95 234.95 Q 441.22 236.68 439.54 236.13 Q 415.68 228.39 390.96 220.04 A 1.05 1.04 -58.1 0 1 390.56 218.31 L 415.32 193.56 A 0.96 0.95 -60.0 0 1 416.24 193.31 L 427.67 196.24 A 1.47 1.44 38.3 0 0 428.70 196.13 Q 430.47 195.24 431.84 193.84 Q 444.72 180.71 457.83 167.52 A 2.00 2.00 0.0 0 0 457.82 164.69 L 425.02 132.25 A 0.71 0.71 0.0 0 0 424.02 132.25 L 394.87 161.57 A 1.07 1.06 -31.2 0 0 394.61 162.62 L 398.03 174.24 A 1.92 1.91 59.4 0 1 397.55 176.13 L 372.97 201.21 A 1.18 1.18 0.0 0 1 371.01 200.75 L 354.80 151.69 A 1.20 1.17 50.3 0 1 354.87 150.79 Q 355.68 149.15 356.92 147.92 Q 387.58 117.33 418.05 86.55 Q 421.12 83.45 423.83 80.93 A 1.44 1.44 0.0 0 1 425.83 80.96 L 510.33 165.45 A 0.86 0.84 44.0 0 1 510.36 166.62 Q 507.55 169.69 504.64 172.64 Z" style=""/>
    <path fill="#ffffff" d=" M 337.24 146.26 A 1.50 1.50 0.0 0 1 335.74 147.76 L 326.76 147.76 A 1.50 1.50 0.0 0 1 325.26 146.26 L 325.26 112.52 A 1.50 1.50 0.0 0 1 326.76 111.02 L 335.74 111.02 A 1.50 1.50 0.0 0 1 337.24 112.52 L 337.24 146.26 Z"/>
    <path fill="#ffffff" d=" M 312.5682 155.1915 A 1.47 1.47 0.0 0 1 312.5682 157.2704 L 306.0204 163.8182 A 1.47 1.47 0.0 0 1 303.9415 163.8182 L 275.9118 135.7885 A 1.47 1.47 0.0 0 1 275.9118 133.7096 L 282.4596 127.1618 A 1.47 1.47 0.0 0 1 284.5385 127.1618 L 312.5682 155.1915 Z"/>
    <path fill="#ffffff" d=" M 296.24 187.05 A 1.45 1.45 0.0 0 1 294.79 188.50 L 261.19 188.50 A 1.45 1.45 0.0 0 1 259.74 187.05 L 259.74 177.95 A 1.45 1.45 0.0 0 1 261.19 176.50 L 294.79 176.50 A 1.45 1.45 0.0 0 1 296.24 177.95 L 296.24 187.05 Z"/>
    <path fill="#ffffff" d=" M 315.16 362.20 C 286.47 334.36 258.09 306.09 230.27 277.36 A 1.01 0.98 29.0 0 1 230.01 276.50 Q 230.32 274.83 232.08 273.07 Q 267.63 237.57 303.01 201.78 A 1.03 1.02 -58.2 0 1 304.06 201.53 L 353.28 217.87 A 1.33 1.33 0.0 0 1 353.83 220.05 Q 342.17 232.29 329.49 244.24 Q 328.24 245.41 327.13 245.03 Q 321.58 243.17 315.92 241.79 A 1.01 0.98 -59.8 0 0 314.99 242.05 L 281.43 275.38 A 1.32 1.32 0.0 0 0 281.44 277.26 L 313.80 309.28 Q 315.20 310.68 316.60 309.28 L 349.45 276.42 A 0.90 0.89 -30.4 0 0 349.68 275.55 Q 348.14 270.01 346.30 264.70 C 345.88 263.50 346.86 261.79 347.84 260.80 Q 359.61 248.90 371.24 237.71 A 1.28 1.27 -31.2 0 1 373.33 238.22 L 389.64 286.69 A 1.01 1.00 55.4 0 1 389.47 287.65 Q 388.07 289.41 386.50 291.00 Q 351.30 326.67 315.98 362.19 A 0.59 0.58 -45.3 0 1 315.16 362.20 Z"/>
    <path fill="#ffffff" d=" M 480.2581 264.7179 A 1.49 1.49 0.0 0 1 478.7707 266.2105 L 444.9907 266.2695 A 1.49 1.49 0.0 0 1 443.4981 264.7821 L 443.4819 255.5221 A 1.49 1.49 0.0 0 1 444.9693 254.0295 L 478.7493 253.9705 A 1.49 1.49 0.0 0 1 480.2419 255.4579 L 480.2581 264.7179 Z"/>
    <path fill="#ffffff" d=" M 457.6820 315.2039 A 1.66 1.66 0.0 0 1 455.3344 315.2039 L 427.4461 287.3156 A 1.66 1.66 0.0 0 1 427.4461 284.9680 L 433.5980 278.8161 A 1.66 1.66 0.0 0 1 435.9456 278.8161 L 463.8339 306.7044 A 1.66 1.66 0.0 0 1 463.8339 309.0520 L 457.6820 315.2039 Z"/>
    <path fill="#ffffff" d=" M 404.34 331.43 A 1.83 1.82 90.0 0 1 402.53 329.61 Q 402.47 314.90 402.57 300.25 Q 402.59 297.73 403.26 295.31 A 0.78 0.78 0.0 0 1 404.01 294.74 L 413.69 294.77 A 1.05 1.05 0.0 0 1 414.74 295.82 L 414.75 330.66 A 0.84 0.84 0.0 0 1 413.90 331.50 L 404.34 331.43 Z"/>
  </g>
  <path fill="#ffffff" d="M 527.5 509.21 C 527.5 509.459 527.299 509.66 527.05 509.66 L 212.95 509.66 C 212.701 509.66 212.5 509.459 212.5 509.21 L 212.5 377.45 C 212.5 377.201 212.701 377 212.95 377 L 527.05 377 C 527.299 377 527.5 377.201 527.5 377.45 L 527.5 509.21 Z" style="" lang="en" role="banner">
    <desc>Open Audio Collective: Audio Network for Everyone</desc>
    <title>Open Audio Collective Logo</title>
  </path>
  <g style="" lang="en" role="banner">
    <desc>Open Audio Collective: Audio Network for Everyone</desc>
    <title>Open Audio Collective Logo</title>
    <path fill="#000000" d=" M 256.5343 410.9350 A 13.96 13.96 0.0 0 1 242.6476 424.9679 L 238.1277 424.9916 A 13.96 13.96 0.0 0 1 224.0948 411.1049 L 224.0657 405.5450 A 13.96 13.96 0.0 0 1 237.9524 391.5121 L 242.4723 391.4884 A 13.96 13.96 0.0 0 1 256.5052 405.3751 L 256.5343 410.9350 Z M 248.1582 405.4367 A 7.01 7.01 0.0 0 0 241.0389 398.5377 L 239.3192 398.5647 A 7.01 7.01 0.0 0 0 232.4201 405.6839 L 232.5018 410.8833 A 7.01 7.01 0.0 0 0 239.6211 417.7823 L 241.3408 417.7553 A 7.01 7.01 0.0 0 0 248.2399 410.6361 L 248.1582 405.4367 Z"/>
    <path fill="#000000" d=" M 269.25 415.56 L 269.25 424.13 A 0.63 0.62 -0.0 0 1 268.62 424.75 L 261.63 424.75 A 0.63 0.63 0.0 0 1 261.00 424.12 L 261.00 392.73 A 0.67 0.66 -3.4 0 1 261.59 392.07 C 269.42 391.08 286.37 388.94 288.44 401.19 C 290.64 414.16 279.04 415.25 269.75 415.07 A 0.49 0.49 0.0 0 0 269.25 415.56 Z M 270.04 408.51 C 283.81 411.27 284.05 395.33 270.03 398.22 A 1.00 0.99 83.1 0 0 269.24 399.23 L 269.57 407.94 A 0.60 0.60 0.0 0 0 270.04 408.51 Z"/>
    <path fill="#000000" d=" M 465.48 414.50 C 462.57 427.12 447.84 425.56 437.25 424.54 A 0.56 0.56 0.0 0 1 436.75 423.98 L 436.75 392.55 A 0.55 0.54 -3.6 0 1 437.23 392.01 C 444.35 391.10 458.89 390.26 463.19 397.30 Q 467.72 404.73 465.48 414.50 Z M 457.27 413.36 C 459.83 404.75 456.19 395.60 445.47 398.19 A 0.61 0.61 0.0 0 0 445.00 398.78 L 445.00 417.72 A 0.60 0.60 0.0 0 0 445.48 418.31 C 449.70 419.11 455.83 418.19 457.27 413.36 Z"/>
    <path fill="#000000" d="M 516.25 411.253 C 516.25 418.819 510.116 424.953 502.55 424.953 L 497.67 424.953 C 490.104 424.953 483.97 418.819 483.97 411.253 L 483.97 405.113 C 484.492 397.547 490.888 391.413 497.67 391.413 L 502.55 391.413 C 510.116 391.413 516.25 397.547 516.25 405.113 L 516.25 411.253 Z M 507.944 405.454 C 507.964 401.616 504.869 398.488 501.03 398.468 L 499.23 398.458 C 495.392 398.438 492.264 401.534 492.244 405.372 L 492.216 410.712 C 492.196 414.55 495.291 417.678 499.13 417.698 L 500.93 417.708 C 504.768 417.728 507.896 414.632 507.916 410.794 L 507.944 405.454 Z"/>
    <path fill="#000000" d=" M 300.50 411.90 L 300.50 418.10 A 0.40 0.40 0.0 0 0 300.90 418.50 L 316.10 418.50 A 0.40 0.40 0.0 0 1 316.50 418.90 L 316.50 424.35 A 0.40 0.40 0.0 0 1 316.10 424.75 L 292.65 424.75 A 0.40 0.40 0.0 0 1 292.25 424.35 L 292.25 392.15 A 0.40 0.40 0.0 0 1 292.65 391.75 L 316.10 391.75 A 0.40 0.40 0.0 0 1 316.50 392.15 L 316.50 397.60 A 0.40 0.40 0.0 0 1 316.10 398.00 L 300.90 398.00 A 0.40 0.40 0.0 0 0 300.50 398.40 L 300.50 404.59 A 0.40 0.40 0.0 0 0 300.90 404.99 L 314.26 405.01 A 0.40 0.40 0.0 0 1 314.65 405.42 L 314.44 411.11 A 0.40 0.40 0.0 0 1 314.04 411.50 L 300.90 411.50 A 0.40 0.40 0.0 0 0 300.50 411.90 Z"/>
    <path fill="#000000" d=" M 328.37 424.75 L 321.20 424.75 A 0.38 0.38 0.0 0 1 320.82 424.37 L 320.44 392.15 A 0.38 0.38 0.0 0 1 320.82 391.77 L 327.34 391.74 A 0.38 0.38 0.0 0 1 327.65 391.90 L 341.06 410.62 A 0.38 0.38 0.0 0 0 341.75 410.40 L 341.75 392.13 A 0.38 0.38 0.0 0 1 342.13 391.75 L 349.62 391.75 A 0.38 0.38 0.0 0 1 350.00 392.13 L 350.00 424.40 A 0.38 0.38 0.0 0 1 349.62 424.78 L 343.17 424.69 A 0.38 0.38 0.0 0 1 342.87 424.53 L 329.44 405.71 A 0.38 0.38 0.0 0 0 328.75 405.93 L 328.75 424.37 A 0.38 0.38 0.0 0 1 328.37 424.75 Z"/>
    <path fill="#000000" d=" M 387.68 417.25 L 377.02 417.25 A 0.39 0.39 0.0 0 0 376.65 417.50 L 374.01 424.50 A 0.39 0.39 0.0 0 1 373.64 424.75 L 366.00 424.75 A 0.39 0.39 0.0 0 1 365.63 424.22 L 377.91 392.00 A 0.39 0.39 0.0 0 1 378.28 391.75 L 386.57 391.75 A 0.39 0.39 0.0 0 1 386.94 392.00 L 399.25 424.22 A 0.39 0.39 0.0 0 1 398.88 424.75 L 391.30 424.75 A 0.39 0.39 0.0 0 1 390.94 424.51 L 388.04 417.49 A 0.39 0.39 0.0 0 0 387.68 417.25 Z M 378.30 410.72 A 0.38 0.38 0.0 0 0 378.65 411.23 L 386.10 411.26 A 0.38 0.38 0.0 0 0 386.46 410.75 L 382.77 401.00 A 0.38 0.38 0.0 0 0 382.06 400.99 L 378.30 410.72 Z"/>
    <path fill="#000000" d=" M 431.52 412.00 C 431.38 429.38 401.69 429.61 401.35 412.41 Q 401.16 402.50 401.28 392.36 A 0.62 0.61 -89.5 0 1 401.89 391.75 L 408.91 391.75 A 0.67 0.67 0.0 0 1 409.58 392.47 Q 408.87 401.45 409.47 410.09 C 409.80 414.90 411.44 418.49 416.73 418.24 Q 422.15 417.98 423.15 412.44 Q 424.04 407.54 423.27 392.38 A 0.60 0.60 0.0 0 1 423.87 391.75 L 430.88 391.75 A 0.55 0.54 89.5 0 1 431.42 392.29 Q 431.59 402.17 431.52 412.00 Z"/>
    <path fill="#000000" d="M 479.628 424.633 C 479.628 424.81 479.484 424.953 479.308 424.953 L 471.708 424.953 C 471.531 424.953 471.388 424.81 471.388 424.633 L 471.388 392.273 C 471.388 392.096 471.531 391.953 471.708 391.953 L 479.308 391.953 C 479.484 391.953 479.628 392.096 479.628 392.273 L 479.628 424.633 Z"/>
    <path fill="#000000" d=" M 235.02 467.72 C 224.42 464.92 222.04 452.68 225.56 443.76 C 229.79 433.08 242.30 432.14 251.68 435.49 A 0.87 0.86 10.2 0 1 252.25 436.30 L 252.25 442.16 A 0.50 0.49 8.7 0 1 251.60 442.63 Q 244.19 440.23 239.27 441.50 C 232.07 443.36 231.23 451.13 233.59 456.68 C 236.26 462.96 246.19 462.05 251.66 460.07 A 0.43 0.43 0.0 0 1 252.23 460.48 L 252.26 466.57 A 0.78 0.77 81.3 0 1 251.72 467.31 Q 243.41 469.92 235.02 467.72 Z"/>
    <path fill="#000000" d=" M 382.94 464.56 C 374.75 458.86 376.26 445.02 382.05 438.57 C 387.20 432.84 397.99 433.04 405.17 435.50 A 0.86 0.84 -81.1 0 1 405.75 436.31 L 405.75 442.16 A 0.47 0.47 0.0 0 1 405.12 442.60 C 399.13 440.42 389.04 439.37 386.74 446.76 C 385.70 450.13 385.57 454.62 387.61 457.65 C 391.57 463.53 399.68 461.23 405.22 460.31 A 0.46 0.46 0.0 0 1 405.75 460.76 L 405.75 466.46 A 0.66 0.66 0.0 0 1 405.32 467.08 Q 393.06 471.61 382.94 464.56 Z"/>
    <path fill="#000000" d=" M 288.7547 453.9508 A 14.50 14.50 0.0 0 1 274.2800 468.4761 L 269.8800 468.4838 A 14.50 14.50 0.0 0 1 255.3548 454.0091 L 255.3453 448.5892 A 14.50 14.50 0.0 0 1 269.8200 434.0639 L 274.2200 434.0562 A 14.50 14.50 0.0 0 1 288.7452 448.5309 L 288.7547 453.9508 Z M 280.2394 448.7658 A 7.32 7.32 0.0 0 0 273.0613 441.3066 L 271.5215 441.2771 A 7.32 7.32 0.0 0 0 264.0624 448.4552 L 263.9606 453.7542 A 7.32 7.32 0.0 0 0 271.1387 461.2134 L 272.6785 461.2429 A 7.32 7.32 0.0 0 0 280.1376 454.0648 L 280.2394 448.7658 Z"/>
    <path fill="#000000" d=" M 318.00 462.10 L 318.00 467.90 A 0.35 0.35 0.0 0 1 317.65 468.25 L 293.85 468.25 A 0.35 0.35 0.0 0 1 293.50 467.90 L 293.50 434.60 A 0.35 0.35 0.0 0 1 293.85 434.25 L 301.40 434.25 A 0.35 0.35 0.0 0 1 301.75 434.60 L 301.75 461.40 A 0.35 0.35 0.0 0 0 302.10 461.75 L 317.65 461.75 A 0.35 0.35 0.0 0 1 318.00 462.10 Z"/>
    <path fill="#000000" d=" M 330.16 461.75 L 345.34 461.75 A 0.41 0.41 0.0 0 1 345.75 462.16 L 345.75 467.84 A 0.41 0.41 0.0 0 1 345.34 468.25 L 321.66 468.25 A 0.41 0.41 0.0 0 1 321.25 467.84 L 321.25 434.66 A 0.41 0.41 0.0 0 1 321.66 434.25 L 329.34 434.25 A 0.41 0.41 0.0 0 1 329.75 434.66 L 329.75 461.34 A 0.41 0.41 0.0 0 0 330.16 461.75 Z"/>
    <path fill="#000000" d=" M 357.85 461.75 L 373.90 461.75 A 0.35 0.35 0.0 0 1 374.25 462.10 L 374.25 467.90 A 0.35 0.35 0.0 0 1 373.90 468.25 L 349.60 468.25 A 0.35 0.35 0.0 0 1 349.25 467.90 L 349.25 434.60 A 0.35 0.35 0.0 0 1 349.60 434.25 L 373.90 434.25 A 0.35 0.35 0.0 0 1 374.25 434.60 L 374.25 440.40 A 0.35 0.35 0.0 0 1 373.90 440.75 L 357.85 440.75 A 0.35 0.35 0.0 0 0 357.50 441.10 L 357.50 447.65 A 0.35 0.35 0.0 0 0 357.85 448.00 L 371.90 448.00 A 0.35 0.35 0.0 0 1 372.25 448.35 L 372.25 454.15 A 0.35 0.35 0.0 0 1 371.90 454.50 L 357.85 454.50 A 0.35 0.35 0.0 0 0 357.50 454.85 L 357.50 461.40 A 0.35 0.35 0.0 0 0 357.85 461.75 Z"/>
    <path fill="#000000" d=" M 417.43 440.75 L 408.57 440.75 A 0.57 0.57 0.0 0 1 408.00 440.18 L 408.00 434.82 A 0.57 0.57 0.0 0 1 408.57 434.25 L 435.93 434.25 A 0.57 0.57 0.0 0 1 436.50 434.82 L 436.50 440.18 A 0.57 0.57 0.0 0 1 435.93 440.75 L 427.07 440.75 A 0.57 0.57 0.0 0 0 426.50 441.32 L 426.50 467.68 A 0.57 0.57 0.0 0 1 425.93 468.25 L 418.57 468.25 A 0.57 0.57 0.0 0 1 418.00 467.68 L 418.00 441.32 A 0.57 0.57 0.0 0 0 417.43 440.75 Z"/>
    <path fill="#000000" d=" M 448.8461 467.6878 A 0.54 0.54 0.0 0 1 448.3090 468.2306 L 440.9891 468.2689 A 0.54 0.54 0.0 0 1 440.4462 467.7318 L 440.2739 434.8122 A 0.54 0.54 0.0 0 1 440.8110 434.2694 L 448.1309 434.2311 A 0.54 0.54 0.0 0 1 448.6738 434.7682 L 448.8461 467.6878 Z"/>
    <path fill="#221e1f" d=" M 469.62 457.92 A 0.28 0.28 0.0 0 0 470.15 457.92 L 478.50 434.86 A 0.94 0.94 0.0 0 1 479.38 434.25 L 486.71 434.25 A 0.50 0.50 0.0 0 1 487.18 434.93 L 475.03 467.08 A 0.95 0.92 -85.6 0 1 474.37 467.66 Q 470.18 468.66 465.91 468.04 A 1.03 1.02 -5.8 0 1 465.10 467.39 L 452.75 434.88 A 0.46 0.46 0.0 0 1 453.17 434.26 L 460.56 434.24 A 0.78 0.78 0.0 0 1 461.29 434.75 L 469.62 457.92 Z"/>
    <path fill="#221e1f" d=" M 499.50 455.00 L 499.50 461.12 A 0.63 0.63 0.0 0 0 500.13 461.75 L 515.46 461.75 A 0.72 0.72 0.0 0 1 516.18 462.46 L 516.22 467.54 A 0.70 0.70 0.0 0 1 515.52 468.25 L 492.00 468.25 A 0.64 0.63 -2.4 0 1 491.36 467.67 C 490.25 456.80 491.18 445.66 491.36 434.75 A 0.51 0.51 0.0 0 1 491.87 434.25 L 515.62 434.25 A 0.63 0.63 0.0 0 1 516.25 434.88 L 516.25 440.12 A 0.63 0.63 0.0 0 1 515.62 440.75 L 500.25 440.75 A 0.75 0.75 0.0 0 0 499.50 441.50 L 499.50 447.50 A 0.50 0.50 0.0 0 0 500.00 448.00 L 513.47 448.00 A 0.71 0.71 0.0 0 1 514.18 448.72 L 514.13 453.82 A 0.70 0.69 0.4 0 1 513.43 454.50 L 500.00 454.50 A 0.50 0.50 0.0 0 0 499.50 455.00 Z"/>
    <path fill="#000000" d=" M 273.1800 498.1700 A 6.19 5.05 90.0 0 1 268.1300 491.9800 A 6.19 5.05 90.0 0 1 273.1800 485.7900 A 6.19 5.05 90.0 0 1 278.2300 491.9800 A 6.19 5.05 90.0 0 1 273.1800 498.1700 Z M 273.1586 496.9900 A 4.93 3.49 89.9 0 0 276.6400 492.0539 A 4.93 3.49 89.9 0 0 273.1414 487.1300 A 4.93 3.49 89.9 0 0 269.6600 492.0661 A 4.93 3.49 89.9 0 0 273.1586 496.9900 Z"/>
    <path fill="#000000" d=" M 286.00 489.17 L 286.00 497.64 A 0.38 0.37 4.0 0 1 285.57 498.01 L 285.23 497.97 A 0.56 0.56 0.0 0 1 284.75 497.42 L 284.75 486.23 A 0.49 0.48 -85.5 0 1 285.31 485.75 C 286.74 485.97 290.46 493.45 291.43 495.05 Q 291.69 495.48 291.71 494.98 C 291.76 493.27 291.23 486.82 292.54 485.94 A 0.44 0.44 0.0 0 1 293.23 486.31 L 293.27 496.96 A 1.03 1.03 0.0 0 1 291.34 497.47 L 286.61 489.01 Q 286.00 487.92 286.00 489.17 Z"/>
    <path fill="#000000" d=" M 334.9900 498.0800 A 6.13 5.01 90.0 0 1 329.9800 491.9500 A 6.13 5.01 90.0 0 1 334.9900 485.8200 A 6.13 5.01 90.0 0 1 340.0000 491.9500 A 6.13 5.01 90.0 0 1 334.9900 498.0800 Z M 334.9615 496.9700 A 4.88 3.58 90.1 0 0 338.5500 492.0962 A 4.88 3.58 90.1 0 0 334.9785 487.2100 A 4.88 3.58 90.1 0 0 331.3900 492.0838 A 4.88 3.58 90.1 0 0 334.9615 496.9700 Z"/>
    <path fill="#000000" d=" M 387.50 492.96 Q 386.13 493.33 385.13 492.51 Q 384.19 491.74 385.40 491.74 L 388.49 491.75 A 0.74 0.74 0.0 0 1 389.23 492.48 L 389.30 495.64 A 2.54 2.53 -2.2 0 1 386.89 498.23 C 374.39 498.90 382.01 479.67 389.10 487.41 A 0.39 0.39 0.0 0 1 388.63 488.02 C 380.39 483.87 379.50 498.37 386.97 496.72 A 0.91 0.90 89.1 0 0 387.66 496.00 L 388.10 493.51 A 0.48 0.48 0.0 0 0 387.50 492.96 Z"/>
    <path fill="#000000" d=" M 409.2751 498.1095 A 6.13 5.02 90.7 0 1 404.3304 491.9187 A 6.13 5.02 90.7 0 1 409.4249 485.8505 A 6.13 5.02 90.7 0 1 414.3696 492.0413 A 6.13 5.02 90.7 0 1 409.2751 498.1095 Z M 409.3241 496.9599 A 4.88 3.53 89.6 0 0 412.8199 492.0554 A 4.88 3.53 89.6 0 0 409.2559 487.2001 A 4.88 3.53 89.6 0 0 405.7601 492.1046 A 4.88 3.53 89.6 0 0 409.3241 496.9599 Z"/>
    <path fill="#221e1f" d=" M 484.4410 498.2421 A 6.28 4.99 84.6 0 1 478.8821 492.4596 A 6.28 4.99 84.6 0 1 483.2590 485.7379 A 6.28 4.99 84.6 0 1 488.8179 491.5204 A 6.28 4.99 84.6 0 1 484.4410 498.2421 Z M 483.9109 496.8897 A 4.86 3.39 89.4 0 0 487.2498 491.9945 A 4.86 3.39 89.4 0 0 483.8091 487.1703 A 4.86 3.39 89.4 0 0 480.4702 492.0655 A 4.86 3.39 89.4 0 0 483.9109 496.8897 Z"/>
    <path fill="#221e1f" d=" M 503.48 497.11 L 503.54 487.14 A 0.87 0.86 -11.1 0 1 504.08 486.34 Q 507.18 485.10 510.18 486.54 Q 511.70 487.26 510.02 487.26 L 505.77 487.24 A 0.69 0.69 0.0 0 0 505.08 487.90 L 504.97 490.41 A 0.61 0.61 0.0 0 0 505.65 491.04 Q 507.56 490.83 509.40 491.22 Q 510.98 491.56 509.48 492.16 Q 507.94 492.77 506.28 492.45 A 1.09 1.09 0.0 0 0 504.99 493.53 L 505.00 496.11 A 0.62 0.62 0.0 0 0 505.61 496.72 L 510.29 496.82 A 0.50 0.50 0.0 0 1 510.76 497.47 L 510.66 497.76 A 0.32 0.31 -81.1 0 1 510.36 497.98 L 504.37 498.01 A 0.89 0.89 0.0 0 1 503.48 497.11 Z"/>
    <path fill="#000000" d=" M 236.09 494.74 Q 231.61 493.13 231.21 497.29 A 0.75 0.75 0.0 0 1 230.52 497.97 L 230.15 498.00 A 0.53 0.53 0.0 0 1 229.61 497.31 L 233.13 486.70 A 1.15 1.15 0.0 0 1 235.31 486.69 L 239.02 497.49 A 0.59 0.58 22.7 0 1 237.94 497.93 L 236.64 495.23 A 1.00 0.96 85.6 0 0 236.09 494.74 Z M 232.46 492.71 A 0.39 0.39 0.0 0 0 232.82 493.23 L 235.54 493.27 A 0.39 0.39 0.0 0 0 235.92 492.77 L 234.62 488.53 A 0.39 0.39 0.0 0 0 233.88 488.52 L 232.46 492.71 Z"/>
    <path fill="#000000" d=" M 246.20 498.19 C 243.50 499.18 240.79 496.59 240.60 493.81 Q 240.36 490.29 240.53 486.75 A 0.58 0.57 -88.9 0 1 241.09 486.20 C 242.59 486.15 242.56 494.01 242.65 495.32 A 1.46 1.46 0.0 0 0 243.03 496.19 C 244.73 498.04 247.45 496.49 247.59 494.17 Q 247.81 490.33 247.74 486.55 A 0.54 0.54 0.0 0 1 248.28 486.00 L 248.56 486.00 A 0.66 0.66 0.0 0 1 249.22 486.63 C 249.37 490.56 250.04 496.79 246.20 498.19 Z"/>
    <path fill="#000000" d=" M 252.95 486.26 C 264.44 482.73 263.24 501.79 252.97 497.65 A 0.74 0.73 -79.7 0 1 252.50 496.96 L 252.50 486.87 A 0.64 0.64 0.0 0 1 252.95 486.26 Z M 256.88 487.35 L 254.69 487.31 A 0.68 0.68 0.0 0 0 253.99 488.00 L 254.03 495.97 A 1.36 1.36 0.0 0 0 256.12 497.12 Q 262.09 493.36 257.57 487.69 A 0.93 0.91 70.7 0 0 256.88 487.35 Z"/>
    <path fill="#000000" d=" M 265.5152 497.3492 A 0.63 0.63 0.0 0 1 264.8929 497.9869 L 264.4530 497.9922 A 0.63 0.63 0.0 0 1 263.8153 497.3700 L 263.6848 486.6908 A 0.63 0.63 0.0 0 1 264.3071 486.0531 L 264.7470 486.0478 A 0.63 0.63 0.0 0 1 265.3847 486.6700 L 265.5152 497.3492 Z"/>
    <path fill="#000000" d=" M 298.52 490.97 L 302.18 491.07 A 0.64 0.63 2.6 0 1 302.80 491.74 C 302.73 492.94 299.77 492.48 298.88 492.57 A 0.72 0.71 86.9 0 0 298.25 493.28 L 298.25 496.13 A 0.63 0.62 0.0 0 0 298.88 496.75 L 303.16 496.75 A 0.61 0.60 -89.5 0 1 303.76 497.37 C 303.74 498.47 298.01 497.97 297.11 497.90 A 0.65 0.65 0.0 0 1 296.50 497.25 L 296.50 486.74 A 0.75 0.75 0.0 0 1 297.26 485.99 L 302.64 486.02 A 0.64 0.64 0.0 0 1 303.27 486.69 L 303.25 487.01 A 0.25 0.25 0.0 0 1 303.00 487.25 L 298.92 487.25 A 0.63 0.63 0.0 0 0 298.29 487.84 L 298.11 490.52 A 0.42 0.42 0.0 0 0 298.52 490.97 Z"/>
    <path fill="#000000" d=" M 322.00 489.30 A 0.35 0.35 0.0 0 0 321.32 489.31 L 319.58 497.27 A 0.96 0.95 85.2 0 1 319.02 497.94 C 317.90 498.42 317.34 497.67 317.14 496.63 Q 316.22 491.98 315.21 487.36 A 0.63 0.62 -9.6 0 0 314.52 486.88 L 310.79 487.36 A 0.63 0.62 86.3 0 0 310.25 487.98 L 310.25 497.37 A 0.63 0.63 0.0 0 1 309.62 498.00 L 309.25 498.00 A 0.50 0.50 0.0 0 1 308.75 497.50 L 308.75 488.48 A 1.27 1.27 0.0 0 0 307.23 487.23 Q 305.89 487.50 304.85 486.75 Q 303.69 485.91 305.13 485.94 L 315.81 486.15 A 0.84 0.84 0.0 0 1 316.61 486.83 L 318.24 494.94 A 0.31 0.31 0.0 0 0 318.85 494.95 L 321.00 486.31 A 0.83 0.83 0.0 0 1 322.62 486.32 L 324.78 495.46 A 0.33 0.33 0.0 0 0 325.43 495.41 C 325.53 494.21 326.34 486.05 327.89 486.22 A 0.52 0.52 0.0 0 1 328.34 486.84 L 326.16 497.57 A 0.68 0.67 8.8 0 1 325.42 498.10 L 324.69 498.02 A 0.79 0.78 -3.2 0 1 324.03 497.44 L 322.00 489.30 Z"/>
    <path fill="#000000" d=" M 346.00 493.04 L 344.89 492.99 A 0.62 0.61 -88.7 0 0 344.25 493.61 L 344.25 497.50 A 0.51 0.50 -0.6 0 1 343.75 498.00 L 343.38 498.00 A 0.62 0.62 0.0 0 1 342.75 497.38 L 342.75 486.69 A 0.59 0.58 85.4 0 1 343.24 486.11 Q 346.62 485.59 349.69 487.10 A 1.36 1.34 4.9 0 1 350.39 487.92 Q 351.40 491.07 348.49 492.70 A 0.48 0.48 0.0 0 0 348.32 493.37 L 350.60 497.02 A 0.50 0.49 -26.1 0 1 350.35 497.75 C 349.08 498.20 347.23 494.52 346.81 493.59 A 0.95 0.95 0.0 0 0 346.00 493.04 Z M 344.93 491.60 Q 347.63 492.44 349.13 490.14 A 1.47 1.47 0.0 0 0 348.30 487.92 L 345.26 487.05 A 0.73 0.73 0.0 0 0 344.33 487.72 L 344.22 490.61 A 1.02 1.01 9.6 0 0 344.93 491.60 Z"/>
    <path fill="#000000" d=" M 355.68 490.86 C 356.83 489.82 359.57 486.01 361.07 486.27 A 0.29 0.29 0.0 0 1 361.24 486.75 L 358.42 490.03 A 0.76 0.76 0.0 0 0 358.32 490.88 C 358.83 491.84 362.47 497.47 361.73 497.95 A 0.74 0.74 0.0 0 1 360.71 497.73 L 357.47 492.68 A 0.75 0.75 0.0 0 0 356.26 492.61 Q 354.57 494.66 355.06 497.35 A 0.52 0.51 82.4 0 1 354.60 497.96 L 354.15 498.00 A 0.61 0.60 -2.6 0 1 353.49 497.40 L 353.51 486.35 A 0.37 0.37 0.0 0 1 353.90 485.98 C 355.44 486.06 355.20 489.57 355.28 490.69 Q 355.31 491.19 355.68 490.86 Z"/>
    <path fill="#000000" d=" M 370.29 489.17 L 370.57 497.34 A 0.65 0.65 0.0 0 1 369.91 498.01 L 369.62 498.00 A 0.63 0.63 0.0 0 1 369.00 497.37 L 368.99 486.74 A 0.94 0.94 0.0 0 1 370.74 486.28 L 375.63 494.92 A 0.36 0.36 0.0 0 0 376.31 494.73 L 376.08 486.52 A 0.46 0.46 0.0 0 1 376.55 486.05 L 376.87 486.06 A 0.64 0.64 0.0 0 1 377.50 486.70 L 377.50 497.45 A 0.84 0.84 0.0 0 1 375.93 497.87 L 370.82 489.02 Q 370.25 488.05 370.29 489.17 Z"/>
    <path fill="#000000" d=" M 398.02 491.40 C 399.29 491.44 401.75 491.32 402.73 492.09 A 0.36 0.36 0.0 0 1 402.51 492.73 L 398.12 492.76 A 0.62 0.62 0.0 0 0 397.50 493.38 L 397.50 497.43 A 0.60 0.59 -85.8 0 1 396.82 498.02 L 396.48 497.97 A 0.57 0.56 -85.9 0 1 396.00 497.41 L 396.00 486.62 A 0.63 0.63 0.0 0 1 396.63 485.99 L 402.23 486.02 A 0.49 0.49 0.0 0 1 402.67 486.71 C 402.26 487.60 398.94 487.24 398.00 487.34 A 0.56 0.56 0.0 0 0 397.50 487.90 L 397.50 490.87 A 0.54 0.53 1.1 0 0 398.02 491.40 Z"/>
    <path fill="#000000" d=" M 420.13 492.99 L 419.38 493.03 A 0.66 0.65 -1.4 0 0 418.75 493.68 L 418.75 497.43 A 0.60 0.59 -85.8 0 1 418.07 498.02 L 417.73 497.97 A 0.57 0.56 -85.9 0 1 417.25 497.41 L 417.25 486.68 A 0.66 0.65 -3.5 0 1 417.83 486.03 Q 421.00 485.68 423.93 486.84 A 1.26 1.25 -89.0 0 1 424.65 487.59 Q 425.84 490.89 423.00 492.67 A 0.54 0.54 0.0 0 0 422.82 493.38 L 424.86 497.17 A 0.46 0.46 0.0 0 1 424.54 497.84 C 423.36 498.06 421.51 494.31 420.90 493.38 A 0.89 0.87 -17.5 0 0 420.13 492.99 Z M 423.24 490.80 C 424.56 487.92 421.61 486.95 419.44 487.25 A 0.76 0.75 -1.0 0 0 418.79 487.92 L 418.44 491.25 A 0.52 0.52 0.0 0 0 419.02 491.82 L 422.39 491.42 A 1.07 1.07 0.0 0 0 423.24 490.80 Z"/>
    <path fill="#000000" d=" M 433.04 493.20 L 432.99 496.11 A 0.63 0.63 0.0 0 0 433.62 496.75 L 438.10 496.75 A 0.66 0.66 0.0 0 1 438.76 497.36 C 438.86 498.47 432.93 497.96 432.10 497.90 A 0.64 0.64 0.0 0 1 431.50 497.26 L 431.50 486.62 A 0.58 0.58 0.0 0 1 432.07 486.04 L 437.85 486.00 A 0.66 0.65 -87.2 0 1 438.50 486.72 C 438.42 487.53 434.46 487.27 433.68 487.33 A 0.71 0.70 88.2 0 0 433.03 488.03 L 432.99 490.34 A 0.63 0.62 1.9 0 0 433.59 490.97 L 436.99 491.08 A 0.65 0.65 0.0 0 1 437.61 491.80 C 437.50 492.78 434.46 492.52 433.68 492.55 A 0.66 0.66 0.0 0 0 433.04 493.20 Z"/>
    <path fill="#000000" d=" M 444.19 495.64 A 0.31 0.31 0.0 0 0 444.79 495.61 C 445.04 494.51 447.12 485.57 448.40 486.21 A 0.62 0.61 -68.4 0 1 448.71 486.94 L 445.34 497.58 A 1.07 1.07 0.0 0 1 443.30 497.56 C 442.87 496.10 439.52 486.66 440.33 486.04 A 0.52 0.51 62.0 0 1 441.13 486.29 L 444.19 495.64 Z"/>
    <path fill="#000000" d=" M 452.22 487.96 L 452.48 490.60 A 0.61 0.60 -10.0 0 0 453.23 491.12 Q 455.43 490.54 457.07 491.82 Q 457.96 492.51 456.84 492.51 L 453.02 492.49 A 0.69 0.69 0.0 0 0 452.33 493.16 L 452.22 496.10 A 0.63 0.63 0.0 0 0 452.85 496.75 L 457.34 496.75 A 0.65 0.65 0.0 0 1 457.99 497.38 C 458.02 498.49 452.33 497.94 451.23 497.72 A 0.60 0.60 0.0 0 1 450.75 497.13 L 450.75 486.63 A 0.63 0.63 0.0 0 1 451.38 486.00 L 457.24 486.00 A 0.56 0.55 -80.3 0 1 457.76 486.74 L 457.66 487.00 A 0.38 0.37 -79.9 0 1 457.31 487.25 L 452.87 487.25 A 0.65 0.64 87.6 0 0 452.22 487.96 Z"/>
    <path fill="#221e1f" d=" M 463.20 493.06 L 462.41 493.22 A 0.84 0.83 84.1 0 0 461.75 494.04 L 461.75 497.49 A 0.56 0.55 9.7 0 1 461.01 498.01 L 460.74 497.91 A 0.39 0.38 9.7 0 1 460.48 497.55 L 460.54 486.82 A 0.66 0.65 84.0 0 1 461.05 486.18 C 465.24 485.25 472.13 488.54 466.49 492.79 A 0.53 0.52 -36.0 0 0 466.37 493.52 Q 467.48 495.08 467.73 497.00 Q 467.98 498.87 466.90 497.33 L 464.15 493.43 A 0.92 0.92 0.0 0 0 463.20 493.06 Z M 464.23 487.00 A 1.66 1.66 0.0 0 0 461.97 488.58 L 462.01 490.98 A 0.74 0.73 -84.6 0 0 462.59 491.69 C 466.54 492.59 469.05 488.86 464.23 487.00 Z"/>
    <path fill="#221e1f" d=" M 493.56 488.83 A 0.29 0.29 0.0 0 0 493.01 488.97 L 492.99 497.06 A 0.83 0.83 0.0 0 1 492.65 497.73 L 492.41 497.89 A 0.60 0.59 -16.9 0 1 491.47 497.39 L 491.73 486.77 A 0.87 0.87 0.0 0 1 493.34 486.35 L 498.31 494.74 A 0.28 0.28 0.0 0 0 498.83 494.59 L 498.72 487.10 A 1.00 0.98 -24.2 0 1 499.00 486.39 L 499.18 486.20 A 0.62 0.62 0.0 0 1 500.25 486.64 L 500.13 497.37 A 0.86 0.86 0.0 0 1 498.52 497.77 L 493.56 488.83 Z"/>
    <path fill="#000000" d=" M 365.7419 497.5459 A 0.38 0.38 0.0 0 1 365.3593 497.9233 L 364.3793 497.9164 A 0.38 0.38 0.0 0 1 364.0020 497.5338 L 364.0781 486.6341 A 0.38 0.38 0.0 0 1 364.4607 486.2567 L 365.4407 486.2636 A 0.38 0.38 0.0 0 1 365.8180 486.6462 L 365.7419 497.5459 Z"/>
    <path fill="#221e1f" d=" M 473.76 491.49 C 474.11 490.73 476.60 485.57 477.65 486.32 A 0.42 0.42 0.0 0 1 477.75 486.90 Q 474.43 491.66 474.37 497.46 A 0.57 0.56 -80.0 0 1 473.62 497.99 L 473.32 497.88 A 0.79 0.79 0.0 0 1 472.80 497.14 Q 472.83 491.59 469.54 487.17 A 0.63 0.62 -26.8 0 1 469.86 486.20 C 471.14 485.81 472.97 490.62 473.36 491.49 Q 473.56 491.93 473.76 491.49 Z"/>
  </g>
</svg>